# xmcd
#
# Track frame offsets:
#	150
#	13427
#	27265
#	39697
#	53825
#	68977
#	81342
#	92497
#	104767
#	117540
#	129662
#	141892
#	153622
#	167005
#	179697
#	190930
#	203730
#	217167
#	232817
#	247157
#	260320
#
# Disc length: 3662 seconds
#
# Revision: 0
# Processed by: cddbd v1.5PL3 Copyright (c) Steve Scherf et al.
# Submitted via: dBpowerAMP V4.0
#
DISCID=410e4c15
DTITLE=Lucille Bogan - Complete Recorded Works (Vol. 1)
DYEAR=1993
DGENRE=Blues
TTITLE0=The Pawn Shop Blues
TTITLE1=Lonesome Daddy Blues
TTITLE2=Chirpin' The Blues
TTITLE3=Trifflin' Blues
TTITLE4=Don't Mean You No Good Blues
TTITLE5=Sweet Patunia
TTITLE6=Levee Blues
TTITLE7=Kind Stella Blues
TTITLE8=Jim Tampa Blues
TTITLE9=War Time Man Blues
TTITLE10=Cravin' Whiskey Blues
TTITLE11=Nice And Kind Blues
TTITLE12=Women Don't Need No Men
TTITLE13=Doggone Wicked Blues
TTITLE14=Oklahoma Man Blues
TTITLE15=New Way Blues
TTITLE16=Pay Roll Blues
TTITLE17=Coffee Grindin' Blues
TTITLE18=Pot Hound Blues
TTITLE19=My Georgia Grind
TTITLE20=Whiskey Selling Woman
EXTD=
EXTT0=
EXTT1=
EXTT2=
EXTT3=
EXTT4=
EXTT5=
EXTT6=
EXTT7=
EXTT8=
EXTT9=
EXTT10=
EXTT11=
EXTT12=
EXTT13=
EXTT14=
EXTT15=
EXTT16=
EXTT17=
EXTT18=
EXTT19=
EXTT20=
PLAYORDER=
